PathFileType	4	(X/Y/Z)	7_2_53_p0_0-222_filt_butterworth.trc
DataRate	CameraRate	NumFrames	NumMarkers	Units	OrigDataRate	OrigDataStartFrame	OrigNumFrames
57.0	57.0	4	27	m	57.0	0	222
Frame#	Time	RHip			RKnee			RAnkle			RBigToe			RSmallToe			RHeel			LHip			LKnee			LAnkle			LBigToe			LSmallToe			LHeel			Neck			Head			Nose			RShoulder			RElbow			RWrist			RThumb			RIndex			RPinky			LShoulder			LElbow			LWrist			LThumb			LIndex			LPinky			
		X1	Y1	Z1	X2	Y2	Z2	X3	Y3	Z3	X4	Y4	Z4	X5	Y5	Z5	X6	Y6	Z6	X7	Y7	Z7	X8	Y8	Z8	X9	Y9	Z9	X10	Y10	Z10	X11	Y11	Z11	X12	Y12	Z12	X13	Y13	Z13	X14	Y14	Z14	X15	Y15	Z15	X16	Y16	Z16	X17	Y17	Z17	X18	Y18	Z18	X19	Y19	Z19	X20	Y20	Z20	X21	Y21	Z21	X22	Y22	Z22	X23	Y23	Z23	X24	Y24	Z24	X25	Y25	Z25	X26	Y26	Z26	X27	Y27	Z27	
0	0.0	0.3073482164401412	0.912755507942271	0.19065754201141782	0.3160808575340087	0.5565314713886156	0.23126058589171894	0.2727515203092132	0.14549629568979072	0.31090129199550803	0.2636151652093464	0.14036268654798667	0.0943028149325875	0.33481743916065826	0.11077386559873005	0.16255482680115513	0.25430642985900265	0.06360698163456206	0.3503256627759469	0.09676672955244132	0.904947268117122	0.21411375014258488	0.10551536280183763	0.5557732597952106	0.24197299819782997	0.13092035283796316	0.1347084512124942	0.31337156776461655	0.13542829156061667	0.13346633786290668	0.07736923955286235	0.06773221036943428	0.14360154095200608	0.12588748871006217	0.14203432928715626	0.07350568947198205	0.35633925145026074	0.19115898805029125	1.5479408337894556	0.18359524906782837	0.19892090821277184	1.8013986531540775	0.15499517012384192	0.1936919641058669	1.6587108056761413	0.0992724023369457	0.365874994170234	1.433676045698774	0.19566369947173035	0.4024296658059445	1.1925517408402615	0.0936197781769374	0.24477102693730618	1.0580623712259722	-0.04768905251313112	0.20917111065277913	1.0153598653747118	-0.06810188359631822	0.17369062835052396	0.9642774141810587	-0.034651320367699856	0.17783164761501058	0.9414445993510101	-0.036182212695017923	0.02838743638559751	1.4513006739552299	0.20910759268227241	-0.0020858112074218648	1.203168147048618	0.1033087256657734	0.14493658214069483	1.0702818450993414	-0.054458388418026416	0.23131376799556336	1.0494403138690716	-0.07738112320130515	0.22941050642638736	1.0105977857569504	-0.08666051220862497	0.16402773650425312	0.9794426987624312	-0.13709409558174146	
1	0.0175438596491228	0.30773034123588505	0.9106913610037971	0.18925577108887076	0.3167464113344522	0.5558429689139445	0.23171212197802157	0.2727610576719975	0.1459903766251263	0.3110078439713665	0.2634240461952786	0.13948810232015618	0.09440637288047496	0.3329761883012295	0.11606095312092043	0.15889836132081941	0.25404554488993736	0.06425927327647632	0.34816243038215344	0.09748599749545217	0.9043929741465775	0.21379395394072703	0.10594104685627745	0.5538014984346784	0.24334658836134032	0.13083668503561824	0.13429099549219292	0.3134439186690633	0.13531889349388249	0.12878851614699757	0.07635777518664082	0.06573225773000907	0.13671563026728167	0.1334772778478417	0.14174544270236736	0.07530315604128351	0.3561154101959453	0.19115258424622147	1.547975853822231	0.18351998914659193	0.19906489065905145	1.7986150693951846	0.15507948956456014	0.19368103376893564	1.6589564918786959	0.09929505020496937	0.365503724804135	1.4330719371357925	0.19648061341344372	0.402659555328662	1.1926959581025447	0.09414993113289638	0.2447335558673457	1.0581544046282998	-0.04767090417154386	0.20909010178602774	1.0191138602825127	-0.06796113618169797	0.1714385558918934	0.961655973288391	-0.030324998489131075	0.17653316228351554	0.942967953874021	-0.04211081180534193	0.028297959991275157	1.451319279652775	0.20919812858399106	-0.0059753311384605785	1.2045276884433367	0.10887195164194968	0.14479524131178836	1.069993739970448	-0.05451438383900402	0.23121706703721204	1.0496382578757835	-0.07735917677220325	0.22919987809753803	1.0126982033200984	-0.08627015233754981	0.16425601107571278	0.981277244284423	-0.13752446607895263	
2	0.0350877192982456	0.3080400401877709	0.9088910921088447	0.18831132157326058	0.31724030157810634	0.5551700996924457	0.23203524596376673	0.2727747955671874	0.1464629323983857	0.31111377679911717	0.2633439761018422	0.13937107335520418	0.09439340347805078	0.33169169068910764	0.11968683262536567	0.15626288814101222	0.2539212735175578	0.06483157985010177	0.34663123009357805	0.09801067683101618	0.9037843360953738	0.2135377118594236	0.10631198241921284	0.5521490951004319	0.24458344829869208	0.13078578395726748	0.13396362153570193	0.31349016167972	0.1347822133476855	0.12520145212459158	0.07702413331776392	0.06445228590668603	0.1323347593268533	0.1383005224441384	0.1414894588121886	0.07679109625750186	0.3559286070419795	0.19114448867979694	1.5480124371186386	0.18345984243723995	0.19917794886128892	1.7966684059709956	0.15513539624566033	0.19367994699532332	1.6590283624123419	0.09930234350160022	0.3656068862391941	1.432648567244804	0.19560393510059745	0.4027692490847076	1.1927685340180638	0.09441319461081057	0.24469968581543378	1.0581980479597386	-0.04766349108465258	0.20830506465059279	1.0209643317772452	-0.06662412907496226	0.1698856056994259	0.9600273232175998	-0.027352541788672496	0.17566979744306133	0.9438473780850221	-0.045767967510977406	0.028237236554462617	1.4512335100811944	0.20926408315707318	-0.00811197543356921	1.2055879262993936	0.1126794483528486	0.1447663630682186	1.0698546604140924	-0.054540312921331394	0.2311840691596013	1.0499440928433752	-0.0773270577640304	0.229071757592273	1.0139777169056103	-0.08600781264714577	0.1643779481363551	0.9822397824243277	-0.13773768111527418	
3	0.0526315789473684	0.30828456359882883	0.9073491782072576	0.18776138553030708	0.3175803142530802	0.5545134997197965	0.2322351860402917	0.2727924325113416	0.14691125139778496	0.3112179023777061	0.2633503255235658	0.13980718819759333	0.09429817352174175	0.3308721318460734	0.12193329540239724	0.15449239349122534	0.25392039972145836	0.06532812914222208	0.3456747421132977	0.0983607203907467	0.9031280179304104	0.21333932392435884	0.1066303388357154	0.5507915604360935	0.2456827442845645	0.13076375384256453	0.13371749065234137	0.31351331725629056	0.13394697469975017	0.12255518286435411	0.07891686582359725	0.06375569804147453	0.1299795068467016	0.14088801580226953	0.14126750588584472	0.07799429524412343	0.35577781151883026	0.19113842465897452	1.5480506936737675	0.1834149653978347	0.19926388519389496	1.7954437529328093	0.1551637776886343	0.1936865173138292	1.658970782450486	0.09929823497795146	0.3660598424281541	1.43237138412803	0.19349933755949209	0.40275354850831363	1.1927774137926888	0.09437523788481914	0.24466948616670234	1.058200633941756	-0.04766163866689774	0.20699089311696547	1.021232545133717	-0.0643164900252004	0.16892321699910207	0.9591566427487068	-0.02553733518865818	0.17517275524142137	0.9442109460910098	-0.047608873290129375	0.028203456540246034	1.4511075187554057	0.20930833340730615	-0.008910320686406757	1.206383537314719	0.11501220424338227	0.14481202439733032	1.0698236648796267	-0.054545917919469736	0.2311972872838155	1.0503047643381174	-0.07728986265885451	0.22900942815101957	1.0146058355196157	-0.08585348745718441	0.16441358932045827	0.9825079769452972	-0.1377820820924948	
